<svg version="1.1" viewBox="0.0 0.0 800.0 600.0" fill="none" stroke="none" stroke-linecap="square" stroke-miterlimit="10" xmlns:xlink="http://www.w3.org/1999/xlink" xmlns="http://www.w3.org/2000/svg"><clipPath id="p.0"><path d="m0 0l800.0 0l0 600.0l-800.0 0l0 -600.0z" clip-rule="nonzero"/></clipPath><g clip-path="url(#p.0)"><path fill="#000000" fill-opacity="0.0" d="m0 0l800.0 0l0 600.0l-800.0 0z" fill-rule="evenodd"/><path fill="#f4c500" d="m112.63517 178.87927c-25.301834 0 -45.62992 20.32808 -45.62992 45.629913l0 244.1286c0 25.236237 20.328087 45.629913 45.62992 45.629913l496.8793 0l121.08923 58.782166l0 -104.28607c0 -0.0630188 0 -0.12600708 0 -0.12600708l0 -244.1286c0 -25.301834 -20.328125 -45.629913 -45.629944 -45.629913z" fill-rule="evenodd"/><path fill="#004f9f" d="m197.91339 28.713911c-7.616806 0 -13.658798 6.1679783 -13.658798 13.782152c0 7.6167984 6.041992 13.656166 13.658798 13.656166c7.551178 0 13.78215 -6.0393677 13.78215 -13.656166c0 -7.614174 -6.2309723 -13.782152 -13.78215 -13.782152zm120.33331 65.07611c4.5302124 0 8.811035 3.6509247 9.188995 8.118111l-18.503937 0c0.6929016 -4.467186 4.845154 -8.118111 9.314941 -8.118111zm-207.69028 -43.17585c19.51181 0 33.67192 15.230972 33.67192 34.868767c0 19.698158 -14.16011 35.055115 -33.67192 35.055115l0 0.06299591l-16.614166 0l0 -69.98688zm506.88712 46.950134c7.9317627 0 13.78479 5.916008 13.78479 13.847763c0 7.929138 -5.8530273 14.16011 -13.78479 14.16011c-7.929077 0 -13.97113 -6.4199524 -13.97113 -14.16011c0 -7.805771 6.042053 -13.847763 13.97113 -13.847763zm-162.87924 -0.31233978c7.9317627 0 14.351715 6.4173203 14.351715 14.349083c0 7.9291306 -6.4199524 14.349083 -14.351715 14.349083c-7.929138 0 -14.412079 -6.4199524 -14.412079 -14.349083c0 -7.9317627 6.4829407 -14.349083 14.412079 -14.349083zm243.50131 18.816277c4.1522217 0 7.425171 3.2729645 7.614197 7.238838c0 4.152237 -3.461975 7.6141815 -7.614197 7.6141815c-4.154846 0 -7.4277954 -3.6509247 -7.4277954 -7.6141815c0 -3.9658737 3.2729492 -7.238838 7.4277954 -7.238838zm-627.9764 -90.81628c-1.6981659 0 -3.083992 1.5091858 -3.083992 3.2729664l0 114.291336c0 1.7637787 1.3858261 3.2729645 3.083992 3.2729645l42.167976 0c33.291336 0 60.606293 -27.44094 60.606293 -60.606293c0 -33.16798 -27.314957 -60.230972 -60.606293 -60.230972zm195.85565 50.03412c-8.9973755 0 -15.35434 6.4199524 -18.816269 11.391075l-3.146988 -7.551178c-0.50393677 -1.0708694 -1.1968536 -2.078743 -3.0839844 -2.078743l-8.118118 0c-1.7007904 0 -3.2729645 1.3858261 -3.2729645 3.272972l0 62.496056c0 1.7637787 1.5721741 3.2729645 3.2729645 3.2729645l17.622055 0c2.7690277 0 3.7742767 -1.1968384 3.7742767 -3.2729645l0 -35.748024c0 -5.8530197 3.965866 -9.816277 9.18898 -9.816277c1.5118103 0 3.2729492 0.50131226 4.091858 0.87926483c0.41470337 0.13385773 0.7952881 0.19422913 1.1417236 0.19422913c1.2939758 0 2.1522522 -0.8241501 2.6981812 -1.7664108l8.433044 -13.847763c2.454071 -3.9632568 -4.2808228 -7.4252014 -13.7847595 -7.4252014zm-77.346466 1.7611542c-1.7637787 0 -3.3359528 1.3858261 -3.3359528 3.272972l0 62.55906c0 1.7007751 1.5721741 3.2729645 3.3359528 3.2729645l18.94226 0c1.7637787 0 3.335968 -1.5721893 3.335968 -3.2729645l0 -62.55906c0 -1.887146 -1.5721893 -3.272972 -3.335968 -3.272972zm130.34122 -1.6981583c-20.393707 0 -35.748047 16.362206 -35.748047 36.25197c0 19.82415 15.543304 36.249336 36.123383 36.249336c10.88974 0 19.51181 -3.7742767 25.553802 -9.816269c1.5721741 -1.5747986 1.1942139 -3.6509094 0.18896484 -5.036743l-8.685028 -10.383202c-0.50393677 -0.5984268 -1.1968689 -0.8976364 -1.9527588 -0.8976364c-0.7532959 0 -1.5721741 0.2992096 -2.3280945 0.8976364c-2.7690125 2.0761185 -7.803131 4.154854 -12.083984 4.154854c-9.0 0 -12.7769165 -6.734909 -13.341217 -11.3937l41.475067 0c1.5721741 0 3.0839844 -1.1942291 3.2703552 -2.895012c0.18896484 -1.2572174 0.3779602 -3.45932 0.3779602 -4.719162c0 -18.944878 -15.228363 -32.41207 -32.850403 -32.41207zm51.29132 -50.349083c-1.6981506 0 -3.2729492 1.5721779 -3.2729492 3.2729664l0 48.774277l-4.4671936 0c-1.763794 0 -3.1469727 1.3858261 -3.1469727 3.272972l0 15.356949c0 1.7637863 1.3831787 3.272972 3.1469727 3.272972l4.4671936 0l0 24.923882c0 15.669289 7.616791 23.976372 20.706024 23.976372c8.62207 0 20.89502 -3.7742767 20.89502 -3.7742767c1.763794 -0.56692505 2.5800476 -2.454071 2.2651062 -4.0288696l-3.774292 -14.286087c-0.47244263 -1.5748062 -1.6010437 -2.359581 -2.984253 -2.359581c-0.27557373 0 -0.561676 0.03149414 -0.85565186 0.09449005c-1.7007751 0.31495667 -4.2808228 1.1942291 -6.734894 1.1942291c-2.0761108 0 -4.6561584 -0.3149643 -4.6561584 -4.152237l0 -21.587921l12.774261 0c1.8897705 0 3.2729797 -1.5091858 3.2729797 -3.272972l0 -15.356949c0 -1.887146 -1.3832092 -3.272972 -3.2729797 -3.272972l-12.774261 0l0 -48.774277c0 -1.7007885 -1.3858337 -3.2729664 -3.084015 -3.2729664zm83.07614 50.286087l0 0.06299591c-19.259857 0.44094086 -35.055115 16.48819 -35.055115 36.06299c0 19.572182 15.795258 35.937004 35.055115 36.438316l79.04721 0c20.013123 0 36.252014 -16.236221 36.252014 -36.249336c0 -20.015747 -16.238892 -36.25197 -36.252014 -36.25197l-0.18896484 0l0 -0.06299591zm178.48557 -50.03412c-1.7611694 0 -3.2729492 1.5091858 -3.2729492 3.2729664l0 50.097115c-2.0761719 -1.2598419 -8.496094 -3.2729645 -14.349121 -3.2729645c-18.501282 0 -34.362183 11.895012 -34.362183 36.25197c0 19.82415 14.664001 36.249336 34.173218 36.249336c15.167969 0 23.16272 -10.887131 23.16272 -10.887131l2.0761108 5.7270355c0.6929321 1.8897552 1.887146 3.4619446 3.5879517 3.4619446l8.118103 0c1.7611694 0 3.2729492 -1.5721893 3.2729492 -3.335968l0 -114.291336c0 -1.7007885 -1.5117798 -3.2729664 -3.2729492 -3.2729664zm68.34906 50.03412c-9.314941 0 -21.398926 2.0761185 -22.97113 2.6430435c-1.5747681 0.50393677 -3.0839844 1.7007904 -2.580017 4.658798l1.5721436 10.887138c0.26245117 2.1417313 1.1312256 3.8057709 2.9291382 3.8057709c0.37005615 0 0.7769165 -0.068237305 1.225708 -0.2178421c4.467224 -1.3858337 12.587952 -2.5800552 17.24414 -2.5800552c8.307068 0 9.314941 3.45932 9.314941 10.1942215c0 0 -5.538086 -2.7690277 -13.280823 -2.7690277c-15.7323 0 -25.425232 9.503937 -25.425232 23.16011c0 13.595802 10.196838 22.782143 23.853027 22.782143c10.887146 0 16.929138 -5.0341187 20.89502 -8.62204l2.3910522 4.658798c0.881897 1.8871307 2.0761108 2.2020874 3.1469727 2.2020874l7.614197 0c1.7008057 0 3.2729492 -1.5091858 3.2729492 -3.2729645l0 -38.139107c0 -20.391075 -7.8031006 -29.391075 -29.202087 -29.391075z" fill-rule="evenodd"/><path fill="#00519f" d="m441.91602 302.3596l43.80313 0l0 -23.034119l-0.12597656 0c-0.12597656 -15.671936 -5.7900085 -30.084 -15.10498 -41.286102l0 0c-2.7060242 -3.2099762 -5.664032 -6.167984 -8.874023 -8.81102l0 0c-0.3779602 -0.31495667 -0.8188782 -0.6299286 -1.1942139 -0.94488525c0 0 -0.06298828 -0.06298828 -0.06298828 -0.06298828c-0.3779602 -0.31495667 -0.8189087 -0.6299286 -1.1968689 -0.87927246c0 0 0 -0.06298828 -0.06298828 -0.06298828c-0.3779602 -0.31495667 -0.8188782 -0.56692505 -1.1968384 -0.8818817l0 0c-0.43832397 -0.31497192 -0.87927246 -0.6299286 -1.320221 -0.881897c0 -0.06298828 0 -0.06298828 -0.06298828 -0.06298828c-2.1390991 -1.4461975 -4.3438416 -2.7690277 -6.6719055 -3.9632568c0 0 -0.06298828 0 -0.06298828 0c-0.94488525 -0.50393677 -1.8241577 -0.94488525 -2.769043 -1.3228302c0 0 -0.06298828 -0.06300354 -0.06298828 -0.06300354c-0.4409485 -0.18896484 -0.94488525 -0.37794495 -1.3832092 -0.62991333l0 0c-0.50393677 -0.1889801 -0.94488525 -0.3779602 -1.3858337 -0.56692505c-0.06298828 0 -0.06298828 0 -0.06298828 0c-0.3149414 -0.12599182 -0.6929016 -0.24934387 -1.0708618 -0.3753357c-0.12597656 -0.06298828 -0.25195312 -0.12597656 -0.43832397 -0.1889801c-0.3149414 -0.12597656 -0.62991333 -0.18896484 -0.94488525 -0.31495667c-0.18896484 -0.06298828 -0.3779297 -0.12597656 -0.56692505 -0.1889801c-0.18896484 -0.06298828 -0.3779602 -0.12597656 -0.56692505 -0.18896484c-0.31497192 -0.12599182 -0.62991333 -0.25196838 -0.94226074 -0.31497192c-0.12597656 -0.06298828 -0.18896484 -0.06298828 -0.3149414 -0.12597656c-0.4409485 -0.12599182 -0.8189087 -0.25196838 -1.2598572 -0.31495667l0 0c-0.50393677 -0.1889801 -1.0078735 -0.31497192 -1.4461975 -0.4409485l-0.06298828 0c-0.25195312 -0.06298828 -0.4409485 -0.12599182 -0.6929016 -0.1889801c-0.31497192 -0.06298828 -0.56695557 -0.12597656 -0.881897 -0.1889801l0 0c-0.50393677 -0.12597656 -1.0078735 -0.25196838 -1.5091858 -0.37532043c-0.06298828 0 -0.06298828 0 -0.06298828 0c-0.50393677 -0.06298828 -1.0708618 -0.1889801 -1.5747986 -0.25196838c0 0 0 0 0 0c-0.56695557 -0.12599182 -1.0682678 -0.1889801 -1.5722046 -0.31495667l-0.06298828 0c-0.50393677 -0.06300354 -1.0708618 -0.12599182 -1.5747986 -0.1889801l-0.06298828 0c-0.50131226 -0.06298828 -1.0682373 -0.12599182 -1.5721741 -0.1889801l-0.06298828 0c-0.50393677 -0.06298828 -1.0708618 -0.12597656 -1.5747986 -0.12597656l-0.0630188 0c-0.50131226 -0.06300354 -1.0682373 -0.06300354 -1.6351624 -0.12599182l0 0c-0.56692505 0 -1.1338501 -0.06298828 -1.6351624 -0.06298828l0 0c-0.56692505 0 -1.1338501 0 -1.7007751 0c-36.0 0 -65.328094 29.32808 -65.328094 65.328094l0 0.50393677l0 0l0 43.80313l-66.01837 0.25198364l0 89.1181l0 0c-0.31497192 11.643036 -10.070862 21.020996 -21.776917 21.020996c-11.706024 0 -21.272964 -9.37796 -21.587921 -21.020996l0 0l0 -89.68503l-36.5643 0l0 -0.0630188l-71.81102 0l0 43.992126l64.82414 0l0 45.75592l0 0c0 35.997375 29.32808 65.328094 65.328094 65.328094c0.50393677 0 1.0708618 0 1.6351624 0l0 0c0.56692505 0 1.1338501 -0.0630188 1.7007751 -0.0630188l0 0c0.56692505 0 1.0708618 -0.06298828 1.6351929 -0.12597656l0 0c0.56692505 0 1.0708618 -0.06298828 1.6377869 -0.12597656l0 0c0.12597656 0 0.31497192 0 0.4409485 -0.06298828c0.3779602 0 0.81625366 -0.06298828 1.1942139 -0.12597656c0.56692505 -0.0630188 1.0708618 -0.12600708 1.5747986 -0.25198364l0.06298828 0c0.50393677 -0.06298828 1.0682678 -0.12597656 1.5722046 -0.25195312l0 0c0.3149414 -0.0630188 0.56692505 -0.12600708 0.88186646 -0.12600708c0.25198364 -0.06298828 0.4409485 -0.12597656 0.6929321 -0.12597656c0.06298828 0 0.06298828 -0.06298828 0.06298828 -0.06298828c0.50131226 -0.06298828 1.005249 -0.18896484 1.5091858 -0.31497192l0.06298828 0c0.25195312 -0.06298828 0.4409485 -0.12597656 0.6929016 -0.18896484c0.31497192 -0.06298828 0.56695557 -0.12597656 0.881897 -0.18896484c0.18637085 -0.0630188 0.3753357 -0.12600708 0.56430054 -0.12600708c0.31497192 -0.12597656 0.62994385 -0.18896484 1.0078735 -0.3149414c0.18899536 -0.06298828 0.3779602 -0.12600708 0.56692505 -0.18899536c0.31497192 -0.06298828 0.62994385 -0.18634033 0.94226074 -0.24932861c0.25198364 -0.12597656 0.56692505 -0.18899536 0.881897 -0.31497192c0.18896484 -0.06298828 0.4409485 -0.12597656 0.62991333 -0.18896484c0.25198364 -0.06298828 0.56692505 -0.18899536 0.881897 -0.31497192c0.18896484 -0.06298828 0.3779602 -0.12597656 0.6272888 -0.18896484c0.31497192 -0.12600708 0.62994385 -0.25198364 0.94488525 -0.3779602c0.18899536 -0.06298828 0.31497192 -0.12597656 0.50393677 -0.18896484c0.3779602 -0.12600708 0.6929321 -0.31497192 1.0078735 -0.4409485c0.18899536 -0.06298828 0.31497192 -0.12600708 0.50131226 -0.18899536c0.31497192 -0.12597656 0.62994385 -0.25195312 1.0078735 -0.4409485c0.12600708 -0.06298828 0.25198364 -0.12597656 0.4409485 -0.18896484c0.31497192 -0.12335205 0.6929321 -0.3123474 1.0078735 -0.50131226c0.12597656 -0.06298828 0.25198364 -0.12597656 0.3753357 -0.12597656c0.3779602 -0.18899536 0.6929016 -0.3779602 1.0708618 -0.56692505l0.3779602 -0.18899536c0.3779602 -0.18896484 0.7558899 -0.3779297 1.1338501 -0.56692505c0.06298828 -0.06298828 0.18896484 -0.12597656 0.25198364 -0.12597656c0.37530518 -0.25198364 0.7532654 -0.4409485 1.1312256 -0.6929016c0.12597656 0 0.18896484 -0.0630188 0.25195312 -0.0630188c0.3779602 -0.24932861 0.7559204 -0.50131226 1.1338806 -0.6902771c0.06298828 -0.06298828 0.12597656 -0.06298828 0.18896484 -0.12597656c0.87927246 -0.50393677 1.6981506 -1.0708618 2.5170593 -1.5747986c0.06298828 -0.06298828 0.06298828 -0.06298828 0.12597656 -0.12600708c0.3779602 -0.25195312 0.8162842 -0.56692505 1.1942444 -0.81625366c0.06298828 0 0.06298828 -0.06298828 0.06298828 -0.06298828c0.3779602 -0.25198364 0.8188782 -0.56695557 1.1968384 -0.8189087c0 -0.06298828 0.06298828 -0.06298828 0.06298828 -0.06298828c0.3779602 -0.31497192 0.6929321 -0.56692505 1.0682373 -0.8189087c0.0630188 -0.06298828 0.12600708 -0.12597656 0.25198364 -0.18896484c0.31497192 -0.25198364 0.6929016 -0.56692505 1.0078735 -0.8162842c0.06298828 -0.06298828 0.12597656 -0.12597656 0.18896484 -0.12597656c1.1968689 -1.0078735 2.3280945 -2.015747 3.4619446 -3.0839844c0 0 0 0 0 0c0.3779602 -0.3779602 0.7559204 -0.7559204 1.1312561 -1.0708618l0 -0.06298828c1.1338501 -1.0708923 2.1417236 -2.202118 3.209961 -3.335968c0 -0.06298828 0 -0.06298828 0 -0.06298828c0.31497192 -0.3779602 0.62991333 -0.6929321 0.94488525 -1.0708618c0 -0.060394287 0.06298828 -0.060394287 0.12597656 -0.12338257c0.31497192 -0.3779297 0.62991333 -0.7558899 0.94488525 -1.1968384c0 0 0 0 0 0c0.31497192 -0.3779602 0.56430054 -0.7559204 0.87927246 -1.1338501c0 -0.06298828 0.06298828 -0.06298828 0.06298828 -0.12600708c3.4619446 -4.59317 6.356964 -9.627289 8.496063 -14.979004l0 -0.06298828c2.9580078 -7.2991943 4.973755 -15.354309 5.036743 -23.72702l0 0l0 -46.194214l21.963257 0l0 108.94223l43.490814 0l0 -108.94223l87.29132 0l0 108.62729l43.740143 0l0 -108.62729l131.03412 0l0 -43.677185l-131.03412 0l0 -43.86615l0 0c0 -11.958008 9.818909 -21.776886 21.776917 -21.776886c11.89502 0 21.648315 9.944885 21.648315 21.839905c0 0 0.06298828 0 0 0l0 22.026245l43.740173 0l0.06298828 -22.026245l-0.06298828 0c0 -36.000015 -29.328125 -65.328094 -65.3255 -65.328094c-0.56689453 0 -1.1338501 0 -1.7007446 0l0 0c-0.56695557 0 -1.0682373 0.06298828 -1.6351929 0.06298828l0 0c-0.56695557 0.06298828 -1.1338501 0.06298828 -1.6378174 0.12599182l-0.06298828 0c-0.50128174 0 -1.0682373 0.06298828 -1.5721436 0.12597656l-0.06298828 0c-0.56695557 0.06298828 -1.0708618 0.12599182 -1.5748291 0.1889801l-0.06298828 0c-0.5013428 0.06298828 -1.0682373 0.12597656 -1.5722046 0.1889801l0 0c-0.3149414 0.06298828 -0.6298828 0.12335205 -0.88183594 0.18634033c-0.25201416 0 -0.5039673 0.06300354 -0.7532959 0.12599182c-0.18896484 0 -0.37799072 0.06298828 -0.56695557 0.06298828c-0.3149414 0.06298828 -0.6928711 0.12599182 -1.0078735 0.25196838c-0.12597656 0 -0.3149414 0 -0.44091797 0.06298828c-0.37799072 0.06300354 -0.7532959 0.1889801 -1.1942139 0.25196838c-0.06298828 0 -0.1260376 0.06300354 -0.18902588 0.06300354c-0.44091797 0.12597656 -0.88183594 0.18896484 -1.322815 0.31495667c-0.18896484 0.06298828 -0.3779297 0.06298828 -0.50390625 0.12597656c-0.37799072 0.12599182 -0.7532959 0.1889801 -1.0682983 0.31497192c-0.12597656 0 -0.18896484 0.06298828 -0.25195312 0.06298828c-0.44091797 0.12597656 -0.881897 0.25196838 -1.2598267 0.37794495c-0.3779297 0.12599182 -0.7559204 0.25196838 -1.1312256 0.3779602c-0.12597656 0 -0.25195312 0.06298828 -0.37799072 0.06298828c-0.3149414 0.12599182 -0.6298828 0.25196838 -1.0078735 0.3779602c-0.12597656 0.06036377 -0.3149414 0.12335205 -0.50390625 0.18634033c-0.25195312 0.06300354 -0.5039673 0.1889801 -0.7532959 0.25196838l-0.7559204 0.31497192c-0.25195312 0.06298828 -0.44091797 0.18896484 -0.6928711 0.25196838c-0.25195312 0.12597656 -0.5039673 0.25196838 -0.7559204 0.31495667c-0.25195312 0.12597656 -0.44091797 0.1889801 -0.6929321 0.31495667c-0.24932861 0.12599182 -0.50128174 0.25196838 -0.75323486 0.31495667l-0.56695557 0.25196838l-0.881897 0.4409485c-0.25195312 0.12599182 -0.44091797 0.1889801 -0.6929321 0.31495667c-0.18634033 0.12336731 -0.43829346 0.24934387 -0.6902466 0.3753357c-0.31500244 0.12597656 -0.62994385 0.31495667 -0.881897 0.4409485l-0.5039673 0.25196838c-0.3149414 0.18896484 -0.6298828 0.37794495 -0.94488525 0.50393677c-0.12335205 0.12597656 -0.3123169 0.1889801 -0.43829346 0.25196838c-0.44091797 0.25196838 -0.8189087 0.50393677 -1.1968384 0.75590515c-0.06298828 0 -0.06298828 0 -0.12597656 0c-0.440979 0.25196838 -0.8189087 0.56430054 -1.2572632 0.8162689c0 0 -0.06298828 0 -0.06298828 0c-0.44091797 0.31495667 -0.8189087 0.56692505 -1.2598267 0.81889343c0 0.06300354 0 0.06300354 -0.06298828 0.06300354c-0.3779297 0.25196838 -0.8189087 0.56692505 -1.1968384 0.81889343c-0.06298828 0.06298828 -0.06298828 0.06298828 -0.06298828 0.06298828c-0.3753662 0.25196838 -0.8162842 0.56692505 -1.1942139 0.8162689c0 0.06300354 -0.06304932 0.06300354 -0.06304932 0.12599182c-0.3779297 0.25196838 -0.7558899 0.56692505 -1.1338196 0.81889343c-0.06298828 0.06298828 -0.12600708 0.06298828 -0.12600708 0.12599182c-0.3779297 0.25196838 -0.7532654 0.56692505 -1.0682373 0.81889343l-0.18896484 0.12597656c-1.5747986 1.320221 -3.0839844 2.7060394 -4.5957947 4.152237c0 0 0 0 0 0c-1.4461975 1.448822 -2.8950195 2.9580078 -4.2152405 4.5328064l0 0.06298828c-0.3149414 0.3779602 -0.62991333 0.75590515 -0.94488525 1.1312408c0 0.06298828 -0.06298828 0.06298828 -0.06298828 0.06298828c-0.3149414 0.3779602 -0.62991333 0.75590515 -0.881897 1.1968536c-0.06298828 0 -0.06298828 0 -0.06298828 0.06298828c-0.3149414 0.3779602 -0.6272888 0.75590515 -0.87924194 1.1338654c0 0.06298828 -0.0630188 0.06298828 -0.0630188 0.06298828c-0.3149414 0.43832397 -0.56692505 0.8162689 -0.88186646 1.2572174c0 0 0 0 0 0.06298828c-0.31497192 0.3779602 -0.56692505 0.75590515 -0.8189087 1.1968536c0 0 -0.06298828 0.06298828 -0.06298828 0.06298828c-2.2651062 3.4619446 -4.1522217 7.1102448 -5.7270203 11.013123l-0.0630188 0.12599182c-0.18896484 0.44093323 -0.3779297 0.8818817 -0.56692505 1.3228302c0 0.06298828 0 0.12335205 -0.06298828 0.18634033c-0.12597656 0.4409485 -0.3123474 0.94488525 -0.50131226 1.3858337l0 0.06298828c-0.12597656 0.50393677 -0.31497192 0.94488525 -0.50393677 1.4461975c0 0 0 0.06298828 0 0.06298828c-0.12597656 0.50393677 -0.31497192 0.94488525 -0.4409485 1.448822c0 0.06298828 0 0.06298828 0 0.06298828c-0.18896484 0.50393677 -0.3149414 1.0078735 -0.4409485 1.5091858l0 0c-0.25195312 1.0078735 -0.50393677 2.0787659 -0.7558899 3.084015l0 0.06298828c-0.12597656 0.50393677 -0.18899536 1.0078735 -0.31497192 1.5118103c0 0.06298828 0 0.06298828 0 0.06298828c-0.06298828 0.50393677 -0.18634033 1.0078735 -0.24932861 1.5721741c0 0 0 0 0 0.06298828c-0.12600708 0.50393677 -0.18899536 0.94488525 -0.25198364 1.448822c0 0.06298828 0 0.12597656 0 0.18896484c-0.06298828 0.50393677 -0.12597656 1.005249 -0.18896484 1.5091858c0 0 0 0.0630188 0 0.0630188c-0.06298828 0.50393677 -0.12597656 1.0078735 -0.18899536 1.5118103c0 0.06298828 0 0.12597656 0 0.18896484c0 0.50131226 -0.06298828 1.005249 -0.12597656 1.5091858l0 0.12597656c0 0.50393677 0 1.0078735 -0.06298828 1.5747986l0 0.0630188c0 0.50131226 0 1.0682373 0 1.5721741l0 0.06298828l-0.25195312 0l0 44.685028l-87.35434 0l0 -44.118103l0 0c0 -11.958008 9.942261 -21.839905 21.900269 -21.839905c11.958008 0 21.713898 9.75592 21.713898 21.65094c0 0.3149414 0 0.6929016 -0.06298828 1.0078735l0 21.648285z" fill-rule="evenodd"/></g></svg>